<?xml version="1.0" standalone="no"?>
<!DOCTYPE svg PUBLIC "-//W3C//DTD SVG 20010904//EN"
 "http://www.w3.org/TR/2001/REC-SVG-20010904/DTD/svg10.dtd">
<svg version="1.0" xmlns="http://www.w3.org/2000/svg"
 width="3873.000000pt" height="3873.000000pt" viewBox="0 0 3873.000000 3873.000000"
 preserveAspectRatio="xMidYMid meet">

<g transform="translate(0.000000,3873.000000) scale(0.100000,-0.100000)"
fill="#000000" stroke="none">
<path d="M20890 28593 c-14 -2 -128 -31 -255 -64 -126 -32 -396 -102 -600
-154 -493 -128 -882 -228 -1745 -451 -318 -82 -858 -222 -1220 -315 -356 -92
-678 -175 -965 -250 -126 -32 -437 -113 -690 -178 -253 -65 -777 -201 -1165
-301 -388 -100 -921 -238 -1185 -306 -264 -68 -550 -142 -635 -164 -85 -22
-303 -78 -485 -125 -358 -93 -417 -113 -511 -180 -204 -146 -327 -391 -364
-725 -7 -60 -14 -335 -17 -645 -5 -592 3 -746 52 -991 61 -303 187 -563 388
-802 117 -139 302 -279 449 -340 40 -17 242 -81 448 -142 559 -167 833 -249
837 -254 3 -3 -86 -139 -772 -1176 -136 -206 -276 -418 -311 -471 l-63 -96
-58 -7 c-32 -3 -69 -8 -83 -11 -14 -2 -205 -29 -425 -60 -220 -31 -492 -69
-605 -85 -113 -16 -448 -63 -745 -105 -691 -97 -715 -100 -827 -130 -290 -75
-584 -227 -821 -426 -230 -192 -405 -413 -532 -674 -70 -144 -110 -262 -148
-435 -29 -131 -30 -139 -51 -315 -38 -312 -51 -1360 -22 -1625 45 -402 138
-666 316 -898 69 -88 217 -231 305 -291 38 -27 275 -160 525 -296 250 -136
507 -276 570 -310 63 -35 320 -175 570 -310 434 -236 968 -527 1075 -585 28
-15 156 -85 285 -155 129 -70 258 -140 285 -155 49 -27 495 -270 1190 -648
187 -101 468 -254 625 -340 157 -85 308 -167 335 -182 28 -15 160 -87 295
-160 135 -73 288 -156 340 -185 52 -29 124 -68 160 -87 36 -19 218 -118 405
-220 187 -102 468 -255 625 -340 546 -298 1085 -591 1135 -618 42 -23 196
-107 580 -315 33 -18 132 -72 219 -120 237 -128 366 -178 561 -217 155 -31
449 -32 650 0 116 18 269 39 485 68 19 3 46 7 60 9 14 2 43 7 65 10 22 2 198
27 390 54 193 27 483 68 645 91 327 46 961 135 1285 181 116 16 226 31 245 34
19 3 114 16 210 29 96 14 308 43 470 66 162 22 322 45 355 50 48 8 329 47 675
95 19 3 100 14 180 25 80 11 161 22 180 25 19 3 224 32 455 64 231 33 521 74
645 91 124 17 236 33 250 35 14 2 189 27 390 55 201 28 491 69 645 91 154 22
296 41 315 44 19 3 100 14 180 25 80 11 163 23 185 26 22 3 67 9 100 14 33 5
130 19 215 30 85 11 184 25 220 31 104 16 108 17 270 39 85 12 234 32 330 46
96 13 191 26 210 29 19 3 145 20 280 39 135 19 425 60 645 91 220 31 411 58
425 60 14 2 126 18 250 34 450 62 579 91 728 162 97 47 156 101 173 160 12 37
11 45 -10 84 -28 53 -48 67 -271 187 -312 169 -770 419 -964 525 -104 56 -190
103 -192 103 -2 0 -4 -79 -4 -175 0 -96 -4 -175 -8 -175 -5 0 -53 -7 -108 -14
-54 -8 -117 -17 -139 -20 -22 -3 -166 -23 -320 -45 -154 -22 -444 -63 -645
-91 -201 -28 -457 -64 -570 -80 -113 -16 -304 -43 -425 -60 -121 -17 -231 -33
-245 -35 -14 -2 -126 -18 -250 -35 -124 -17 -286 -39 -360 -50 -74 -11 -268
-37 -430 -60 -162 -22 -322 -45 -355 -50 -33 -5 -112 -17 -175 -25 -63 -9
-126 -18 -140 -20 -14 -2 -95 -13 -180 -25 -162 -22 -177 -24 -250 -35 -74
-11 -84 -12 -390 -54 -162 -23 -322 -46 -355 -51 -33 -5 -193 -28 -355 -50
-162 -23 -374 -52 -470 -66 -96 -13 -191 -26 -210 -29 -19 -3 -161 -23 -315
-44 -154 -22 -444 -63 -645 -91 -423 -59 -796 -111 -995 -140 -161 -23 -553
-78 -605 -85 -19 -3 -114 -16 -210 -29 -96 -14 -305 -43 -465 -65 -159 -23
-321 -45 -360 -51 -55 -9 -403 -57 -675 -95 -19 -3 -161 -23 -315 -44 -614
-87 -692 -94 -811 -66 -176 41 -273 206 -305 518 -18 174 -3 1822 17 1929 57
302 248 605 514 817 236 189 493 300 795 341 39 6 86 12 105 15 19 2 127 18
240 34 192 27 215 29 370 21 162 -9 478 -26 655 -35 50 -3 135 -7 190 -10 55
-3 138 -8 185 -10 47 -3 173 -10 280 -15 107 -6 278 -14 380 -20 102 -5 318
-17 480 -25 162 -8 378 -19 480 -25 102 -5 273 -14 380 -20 107 -5 236 -12
285 -15 50 -3 180 -9 290 -15 110 -5 243 -13 295 -16 177 -11 395 28 461 84
18 15 155 212 305 438 l271 411 94 13 c52 7 101 13 109 15 8 1 40 6 70 9 30 4
84 11 120 17 36 5 196 28 355 50 160 22 369 51 465 65 96 13 191 26 210 29 19
3 161 23 315 44 154 22 444 63 645 91 201 28 536 75 745 105 347 49 778 109
865 121 19 3 46 7 60 9 14 2 43 7 65 10 41 5 695 97 1005 141 96 13 191 27
210 29 366 50 695 100 752 114 190 49 360 142 430 236 32 42 38 58 38 101 0
42 -4 54 -27 76 -16 14 -208 123 -428 243 -220 119 -443 241 -495 270 -52 29
-176 96 -275 150 -99 53 -232 126 -295 160 -63 34 -293 159 -510 277 -369 201
-1112 605 -1852 1008 l-317 172 43 66 c24 37 182 276 351 532 169 256 367 555
440 665 130 197 647 979 757 1145 31 47 60 97 63 112 22 87 -124 196 -331 248
-148 36 -458 60 -467 35 -5 -11 -348 -531 -974 -1475 -556 -839 -1570 -2371
-1980 -2989 -143 -218 -353 -535 -466 -706 -113 -170 -311 -470 -440 -665
-128 -195 -331 -503 -450 -683 l-217 -328 -77 5 c-43 3 -134 8 -203 11 -69 4
-156 8 -195 10 -38 3 -160 9 -270 15 -110 5 -279 14 -375 20 -96 5 -267 14
-380 20 -113 5 -243 12 -290 15 -47 3 -175 9 -285 15 -110 6 -279 15 -375 21
-96 5 -305 16 -465 24 -159 8 -371 19 -470 25 -99 5 -268 14 -375 20 -107 5
-235 12 -285 15 -49 3 -180 10 -290 16 -110 5 -281 14 -380 19 -99 6 -313 17
-475 25 -162 8 -376 19 -475 25 -99 6 -270 15 -380 20 -110 6 -238 12 -285 15
-47 3 -173 9 -280 15 -107 6 -278 15 -380 20 -102 6 -315 17 -475 25 -159 8
-375 19 -480 25 -104 6 -271 15 -370 20 -99 6 -313 17 -475 25 -162 8 -378 20
-480 25 -371 21 -620 29 -850 30 -385 1 -651 26 -880 81 -428 104 -749 334
-900 644 -88 179 -119 354 -113 635 2 96 6 393 7 660 2 267 7 503 10 525 42
246 134 429 284 566 113 104 284 200 432 242 148 42 225 49 550 48 173 -1 328
-3 345 -6 16 -3 125 -10 240 -15 116 -6 291 -15 390 -20 99 -6 311 -17 470
-25 160 -8 374 -19 478 -25 103 -5 271 -14 375 -20 103 -5 230 -12 282 -15 52
-3 183 -10 290 -15 222 -11 532 -28 665 -35 50 -3 182 -10 295 -15 113 -6 282
-15 375 -20 94 -5 262 -14 375 -20 113 -6 243 -12 290 -15 47 -3 173 -9 280
-15 107 -5 278 -15 380 -20 102 -6 275 -15 385 -20 110 -6 238 -12 285 -15 47
-3 173 -9 280 -15 267 -14 547 -29 655 -35 50 -3 180 -10 290 -15 263 -13 557
-28 675 -35 99 -5 216 -11 385 -20 55 -3 183 -10 285 -15 163 -9 288 -15 670
-35 52 -3 133 -7 180 -10 47 -3 130 -7 185 -10 55 -3 186 -10 290 -15 419 -23
581 -28 835 -26 241 2 273 4 350 25 47 12 112 37 144 54 l60 32 314 475 c173
261 427 646 566 855 138 209 364 550 501 757 138 208 358 541 490 740 637 965
888 1344 895 1351 8 9 43 19 510 138 173 44 358 92 410 105 52 14 174 45 270
70 274 70 275 71 286 130 5 26 0 48 -20 89 -51 103 -176 189 -356 245 l-85 26
-2 363 -3 363 74 111 c40 62 220 334 400 606 348 524 350 528 312 585 -39 60
-158 112 -326 142 -66 12 -282 28 -702 52 l-128 7 -1 -280 c-1 -154 -5 -685
-8 -1179 l-6 -900 -165 -43 c-91 -24 -280 -73 -420 -109 -140 -36 -307 -79
-370 -95 -63 -17 -455 -118 -870 -225 -415 -107 -804 -208 -865 -224 -60 -16
-209 -54 -330 -85 -121 -31 -269 -69 -330 -85 -60 -16 -189 -49 -285 -74 -605
-156 -1098 -283 -1245 -321 -93 -24 -273 -71 -400 -103 -126 -33 -327 -85
-445 -115 -118 -31 -417 -108 -665 -172 -247 -64 -499 -129 -560 -145 -60 -16
-236 -61 -390 -101 -154 -39 -408 -105 -565 -145 -157 -41 -375 -97 -486 -126
l-200 -51 -495 147 c-272 82 -613 184 -759 227 -146 44 -294 88 -330 99 -36
10 -139 41 -230 69 -91 27 -282 84 -425 126 -143 42 -294 87 -335 100 -41 13
-192 58 -335 101 -143 42 -483 143 -755 224 -272 82 -511 153 -530 158 -19 5
-217 65 -440 132 -223 66 -504 151 -625 187 -121 36 -292 87 -380 113 -88 27
-299 89 -470 140 -170 50 -340 102 -376 116 -157 59 -334 201 -428 344 -181
277 -250 625 -237 1190 15 640 24 821 45 909 57 229 184 361 376 392 157 24
344 -16 720 -154 83 -30 296 -99 475 -152 688 -206 953 -285 1165 -348 121
-36 461 -138 755 -226 294 -87 551 -164 570 -169 37 -10 440 -131 690 -207 80
-24 228 -68 330 -99 102 -30 426 -127 720 -214 1407 -420 1306 -391 1383 -392
26 0 107 15 180 34 72 19 213 55 312 81 99 25 239 62 310 80 72 19 270 70 440
114 171 44 418 108 550 142 132 34 332 85 445 114 358 92 638 165 870 225 124
32 340 88 480 124 140 36 462 119 715 185 253 65 674 174 935 241 261 67 531
137 600 155 69 18 251 65 405 105 154 40 363 94 465 120 102 26 311 80 465
120 154 40 402 104 550 142 508 132 1107 287 1385 358 171 44 198 54 227 82
55 53 45 126 -26 197 -78 78 -230 135 -766 291 -33 9 -184 54 -335 99 -151 45
-426 127 -610 182 -184 55 -445 133 -580 174 -135 40 -261 78 -280 83 -19 6
-127 38 -240 72 -113 34 -221 66 -240 72 -19 6 -276 82 -570 170 -294 88 -611
182 -705 209 -93 28 -204 61 -245 74 -41 13 -151 46 -245 74 -456 134 -1041
309 -1665 496 -195 59 -388 113 -428 121 -69 13 -195 17 -252 7z"/>
</g>
</svg>
